<svg width="859" height="811" viewBox="0 0 859 811" fill="none" xmlns="http://www.w3.org/2000/svg">
<g clip-path="url(#clip0_11_107)">
<path d="M411.345 1.32088C385.671 3.04155 365.313 22.5208 364.273 48.237L464.323 42.8571C459.861 17.5101 437.018 -0.400326 411.345 1.32088Z" fill="#353535"/>
<path d="M618.42 100.645L631.817 100.748C661.578 119.223 693.822 141.299 723.153 160.673C724.793 189.443 725.297 219.715 726.639 248.696L739.218 518.92C715.297 531.183 686.01 543.785 661.102 555.409L521.144 620.574L281.464 559.712C277.558 558.642 273.476 557.558 269.533 556.657C238.727 549.595 208.174 541.025 177.485 533.601C177.065 529.055 175.357 521.857 174.377 517.112L168.084 487.045L151.734 406.829L117.305 240.281C112.478 217.13 108.023 192.772 102.765 169.891C106.938 166.594 111.442 163.3 115.727 160.131C142.917 140.022 169.087 118.099 196.5 98.3529C337.143 98.3976 477.785 99.1612 618.42 100.645Z" fill="#353535"/>
<path d="M589.955 247.275C619.658 245.854 644.884 268.798 646.279 298.508C647.673 328.217 624.713 353.428 595.006 354.801C565.337 356.17 540.171 333.237 538.775 303.562C537.38 273.888 560.291 248.695 589.955 247.275Z" fill="#02D4E4"/>
<path d="M603.646 269.708C614.274 267.662 624.537 274.657 626.523 285.3C628.509 295.943 621.462 306.17 610.809 308.096C600.238 310.007 590.116 303.022 588.144 292.463C586.173 281.905 593.099 271.738 603.646 269.708Z" fill="#DBDAD7"/>
<path d="M304.355 250.718C333.987 247.98 360.21 269.826 362.876 299.47C365.541 329.115 343.636 355.293 313.991 357.887C284.449 360.474 258.387 338.654 255.731 309.11C253.074 279.567 274.825 253.447 304.355 250.718Z" fill="#02D4E4"/>
<path d="M320.527 272.741C331.264 271.051 341.332 278.402 342.995 289.144C344.659 299.887 337.286 309.94 326.541 311.579C315.833 313.213 305.823 305.868 304.165 295.161C302.506 284.454 309.826 274.424 320.527 272.741Z" fill="#DBDAD7"/>
<path d="M621.968 442.473C624.455 445.202 630.444 454.463 632.757 457.895C609.812 471.424 592.558 481.076 567.289 490.53C483.488 521.888 403.502 509.787 323.751 473.495L311.168 467.424C314.318 462.098 317.094 456.811 319.99 451.354C343.347 462.358 359.598 468.693 384.689 475.556C451.531 494.468 522.895 489.304 586.32 460.972C599.061 455.333 609.938 449.327 621.968 442.473Z" fill="#DBDAD7"/>
<path d="M241.33 198.565C274.972 193.819 308.648 189.309 342.353 185.034C356.747 183.1 372.623 181.195 386.848 178.673L386.225 206.731C359.116 210.556 331.982 214.2 304.824 217.663L279.584 220.954C276.086 221.411 268.588 222.579 265.347 222.577C263.008 223.12 259.887 223.405 257.457 223.682C242.815 225.352 228.096 227.913 213.422 229.122L213.941 201.933C222.839 200.646 232.362 199.655 241.33 198.565Z" fill="#DBDAD7"/>
<path d="M521.228 173.538C534.763 174.683 549.82 176.615 563.535 177.998L673.339 189.035C673.01 198.371 672.895 207.867 672.696 217.218C622.53 214.218 570.87 208.593 520.467 205.023C520.464 194.783 520.952 183.825 521.228 173.538Z" fill="#DBDAD7"/>
<path d="M468.92 235.267L470.138 235.346C471.171 236.74 471.748 240.372 472.053 242.154C477.863 276.595 483.788 311.031 489.565 345.478C492.844 365.042 497.402 385.281 499.644 404.924L420.207 404.371L414.223 404.204C414.07 398.335 414.236 392.714 414.383 386.852C434.804 386.828 456.869 387.389 477.166 386.747C476.749 380.577 474.971 371.93 473.849 365.651L467.657 331.215L451.529 238.437C457.292 237.203 463.095 236.145 468.92 235.267Z" fill="#DBDAD7"/>
<path d="M194.209 638.707C260.744 655.602 327.187 672.854 393.534 690.475L463.136 708.663L483.303 713.851C485.727 714.454 491.222 715.534 493.275 716.205C505.457 712.976 530.12 703.579 542.784 699.076L622.098 671.607C633.05 667.901 644.459 663.521 655.461 660.198C670.753 680.135 685.457 701.865 700.279 722.286C693.659 724.512 685.099 728.362 678.457 731.066L647.218 743.55L556.622 779.868C536.75 787.884 511.066 798.759 491.179 805.636C483.132 802.92 472.727 800.218 464.379 797.789L403.518 780.133L169.206 711.204C172.228 701.338 176.136 691.129 179.354 681.186C184.098 666.913 189.551 652.694 194.209 638.707Z" fill="#353535"/>
<path d="M194.209 638.707C260.744 655.602 327.187 672.854 393.534 690.474L463.136 708.663L483.303 713.851C485.727 714.454 491.222 715.534 493.275 716.205C492.853 717.894 492.524 722.493 492.284 724.535C491.321 732.419 490.503 740.323 489.833 748.242C465.979 743.521 441.806 737.806 417.963 732.645L273.25 701.231L212.652 687.959C203.161 685.906 188.71 682.354 179.354 681.186C184.098 666.912 189.551 652.694 194.209 638.707Z" fill="#02D4E4"/>
<path d="M250.512 566.775C257.393 567.938 270.461 571.608 277.675 573.417L336.409 588.391L523.429 635.618L603.379 598.504L607.321 638.822C608.006 645.63 609.432 655.979 609.493 662.478C608.346 663.996 607.988 663.721 605.85 664.546L493.72 702.386L339.768 662.662L279.697 647.111C269.885 644.613 256.81 640.97 247.072 639.144C248.48 615.472 249.482 590.5 250.512 566.775Z" fill="#353535"/>
<path d="M101.292 235.175C103.065 236.782 120.74 326.521 122.406 334.736L153.265 486.04L102.868 481.848C99.3025 481.375 94.4796 481.171 90.8084 480.914L68.014 370.78C60.7825 336.416 52.5026 299.209 46.1649 264.786L101.292 235.175Z" fill="#FF3433"/>
<path d="M739.928 230.068C757.82 235.014 779.031 240.02 797.163 244.271C799.686 300.257 804.727 357.533 806.867 413.4C801.378 415.887 797.105 417.63 791.453 419.704C777.935 424.802 764.49 430.081 751.116 435.546C750.71 419.673 749.299 402.13 748.418 386.103L742.392 281.762C741.956 274.558 738.994 233.798 739.928 230.068Z" fill="#FF3433"/>
<path d="M40.7305 313.223L41.6442 313.559C42.4208 315.399 44.04 323.693 44.5405 326.03L50.5364 353.955L71.8767 451.446C60.6191 450.276 49.3866 448.877 38.1844 447.261C34.6594 446.904 31.0122 446.331 27.4919 445.826C24.0755 429.101 19.8048 411.658 16.0317 394.962L2.76959 335.123C14.4633 327.645 28.5898 320.003 40.7305 313.223Z" fill="#353535"/>
<path d="M431.816 58.099C438.61 58.3531 447.908 57.78 454.894 57.535C468.322 57.0285 481.754 56.5912 495.189 56.2227C499.971 66.0865 504.89 75.8855 509.936 85.6174L318.269 85.4722C322.633 78.132 327.533 69.2014 332.133 62.2253C347.034 61.8617 361.931 61.3602 376.823 60.7208C381.719 60.5386 396.373 60.2578 400.61 59.4736C409.726 58.3689 421.786 59.2818 431.816 58.099Z" fill="#FF3433"/>
<path d="M493.148 716.237L656.023 660.237L675.773 687.987L489.648 747.987L493.148 716.237Z" fill="#FF3433"/>
<path d="M820.273 385.237L814.273 267.237L852.273 288.237L858.273 373.237L820.273 385.237Z" fill="#353535"/>
</g>
<defs>
<clipPath id="clip0_11_107">
<rect width="858.273" height="810.639" fill="white"/>
</clipPath>
</defs>
</svg>
