<?xml version="1.0" encoding="UTF-8"?>
<svg id="Layer_1" xmlns="http://www.w3.org/2000/svg" version="1.1" viewBox="0 0 956.17 319.04">
  <!-- Generator: Adobe Illustrator 30.2.1, SVG Export Plug-In . SVG Version: 2.1.1 Build 1)  -->
  <defs>
    <style>
      .st0, .st1, .st2 {
        fill: #181818;
      }

      .st3, .st4, .st1, .st5, .st6, .st7, .st8, .st9, .st10, .st11, .st12, .st2 {
        isolation: isolate;
      }

      .st3, .st6, .st13, .st9, .st10, .st11 {
        fill: #f4f0ea;
      }

      .st3, .st11, .st12 {
        font-family: CourierNewPSMT, 'Courier New';
      }

      .st3, .st2 {
        font-size: 10px;
      }

      .st14, .st15, .st4, .st16, .st17, .st18, .st19, .st20, .st21, .st22, .st8, .st23, .st24, .st25 {
        fill: none;
      }

      .st14, .st17, .st22 {
        stroke-dasharray: 4 4;
      }

      .st14, .st17, .st22, .st8 {
        stroke-width: 4px;
      }

      .st14, .st23, .st24 {
        stroke: #07bcbf;
      }

      .st15, .st22, .st8 {
        stroke: #181818;
      }

      .st15, .st24 {
        stroke-width: 3px;
      }

      .st4 {
        opacity: .5;
      }

      .st4, .st18, .st19 {
        stroke-width: 1.5px;
      }

      .st4, .st18, .st19, .st20, .st25 {
        stroke: #f4f0ea;
      }

      .st26, .st5, .st12 {
        fill: #07bcbf;
      }

      .st1 {
        opacity: .1;
      }

      .st16 {
        stroke-width: 3.23px;
      }

      .st16, .st17, .st21 {
        stroke: #e53935;
      }

      .st18 {
        stroke-dasharray: 4 2;
      }

      .st5, .st7, .st9, .st10 {
        font-family: ArialMT, Arial;
      }

      .st5, .st7, .st10 {
        font-size: 14px;
        letter-spacing: .07em;
      }

      .st27, .st7 {
        fill: #e53935;
      }

      .st20 {
        stroke-dasharray: 2 2;
      }

      .st20, .st21, .st23, .st25 {
        stroke-width: 2px;
      }

      .st6 {
        opacity: .3;
      }

      .st8 {
        opacity: .4;
        stroke-dasharray: 6 6;
      }

      .st9 {
        font-size: 24px;
        letter-spacing: .08em;
      }

      .st11, .st12 {
        font-size: 12px;
      }

      .st2 {
        font-family: CourierNewPS-BoldMT, 'Courier New';
        font-weight: 700;
      }
    </style>
  </defs>
  <path class="st22" d="M438.54,261.66c110,0,122.96-104.92,212.96-104.92"/>
  <path class="st15" d="M102.38,156.74c40,0,136.16,104.92,176.16,104.92"/>
  <line class="st8" x1="2.38" y1="156.74" x2="92.38" y2="156.74"/>
  <path class="st24" d="M102.38,156.74c40,0,136.16-100,176.16-100"/>
  <path class="st16" d="M102.38,156.74h187.2"/>
  <polygon class="st1" points="283.54 21.74 463.54 11.74 453.54 101.74 274.98 106.74 283.54 21.74"/>
  <polygon class="st0" points="278.54 16.74 458.54 6.74 448.54 96.74 269.98 101.74 278.54 16.74"/>
  <polygon class="st23" points="283.54 21.74 453.54 11.74 443.54 91.74 274.98 96.74 283.54 21.74"/>
  <text class="st5" transform="translate(311.51 45.47)"><tspan x="0" y="0">CONFIDENCE</tspan></text>
  <rect class="st4" x="298.54" y="56.74" width="130" height="12"/>
  <rect class="st26" x="298.54" y="56.74" width="105" height="12"/>
  <text class="st11" transform="translate(405.03 66.78)"><tspan x="0" y="0">85%</tspan></text>
  <polygon class="st1" points="298.54 121.74 470.58 118.07 468.43 197.96 288.43 207.96 298.54 121.74"/>
  <polygon class="st0" points="293.54 116.74 465.58 113.07 463.43 192.96 283.43 202.96 293.54 116.74"/>
  <polygon class="st21" points="298.54 121.74 460.58 118.07 458.43 187.96 288.43 197.96 298.54 121.74"/>
  <text class="st7" transform="translate(332.04 141.74)"><tspan x="0" y="0">REASONING</tspan></text>
  <circle class="st13" cx="328.54" cy="166.74" r="4"/>
  <line class="st25" x1="332.54" y1="166.74" x2="358.54" y2="156.74"/>
  <line class="st25" x1="332.54" y1="166.74" x2="358.54" y2="176.74"/>
  <circle class="st6" cx="362.54" cy="156.74" r="4"/>
  <circle class="st27" cx="362.54" cy="176.74" r="4"/>
  <line class="st21" x1="366.54" y1="176.74" x2="398.54" y2="176.74"/>
  <circle class="st27" cx="402.54" cy="176.74" r="4"/>
  <polygon class="st1" points="268.54 226.66 448.54 216.66 438.54 306.66 258.54 313.53 268.54 226.66"/>
  <polygon class="st0" points="263.54 221.66 443.54 211.66 433.54 301.66 253.54 308.53 263.54 221.66"/>
  <polygon class="st18" points="268.54 226.66 438.54 216.66 428.54 296.66 258.54 303.53 268.54 226.66"/>
  <text class="st10" transform="translate(300.1 246.66)"><tspan x="0" y="0">NEXT STEPS</tspan></text>
  <rect class="st19" x="288.54" y="261.66" width="40" height="20"/>
  <text class="st3" transform="translate(305.54 275.66)"><tspan x="0" y="0">A</tspan></text>
  <line class="st20" x1="333.54" y1="271.66" x2="353.54" y2="271.66"/>
  <polygon class="st13" points="348.54 268.66 353.54 271.66 348.54 274.66 348.54 268.66"/>
  <rect class="st13" x="358.54" y="261.66" width="40" height="20"/>
  <text class="st2" transform="translate(375.54 275.66)"><tspan x="0" y="0">B</tspan></text>
  <path class="st14" d="M453.54,56.74c95,0,107.96,100,197.96,100"/>
  <path class="st17" d="M468.54,156.74h182.96"/>
  <polygon class="st0" points="648.63 144.74 676.5 156.74 651.5 169.24 648.63 144.74"/>
  <polygon class="st0" points="681.5 91.74 951.5 91.74 951.5 231.74 681.5 231.74 681.5 91.74"/>
  <polygon class="st24" points="686.5 96.74 946.5 96.74 946.5 226.74 686.5 226.74 686.5 96.74"/>
  <path class="st24" d="M786.5,126.74c20-16.67,40-16.67,60,0-20,16.67-40,16.67-60,0Z"/>
  <circle class="st26" cx="816.5" cy="126.74" r="8"/>
  <circle class="st0" cx="816.5" cy="126.74" r="3"/>
  <text class="st9" transform="translate(770.16 171.74)"><tspan x="0" y="0">AGENT</tspan></text>
  <text class="st12" transform="translate(744.49 191.74)"><tspan x="0" y="0">Decides with Context</tspan></text>
  <text class="st12" transform="translate(748.09 206.74)"><tspan x="0" y="0">Acts with Certainty</tspan></text>
  <circle class="st0" cx="102.38" cy="156.74" r="8"/>
</svg>